<?xml version="1.0" standalone="no"?>
<!DOCTYPE svg PUBLIC "-//W3C//DTD SVG 20010904//EN" "http://www.w3.org/TR/2001/REC-SVG-20010904/DTD/svg10.dtd">
<svg version="1.0" xmlns="http://www.w3.org/2000/svg" width="200.000000pt" height="200.000000pt" viewBox="0 0 200.000000 200.000000" preserveAspectRatio="xMidYMid meet">
<metadata>
Created by potrace 1.11, written by Peter Selinger 2001-2013
</metadata>
<g transform="translate(0.000000,200.000000) scale(0.100000,-0.100000)" fill="#000000" stroke="none">
<path d="M125 1989 c-44 -12 -89 -57 -108 -107 -15 -38 -17 -122 -16 -890 0
-834 1 -848 21 -890 20 -42 48 -67 101 -90 21 -9 235 -11 885 -9 471 1 865 5
874 8 37 11 81 53 99 94 18 41 19 77 17 916 -2 687 -6 873 -15 877 -7 2 -13 9
-13 16 0 18 -40 53 -82 70 -32 14 -146 15 -885 15 -466 0 -862 -5 -878 -10z"/>
</g>
</svg>
